Coordinates
version=1
nRows=5
nColumns=40
inDegrees=yes

Units are S.I. units (second, meters, Newtons, ...)
If the header above contains a line with 'inDegrees', this indicates whether rotational values are in degrees (yes) or radians (no).

endheader
time	pelvis_tilt	pelvis_list	pelvis_rotation	pelvis_tx	pelvis_ty	pelvis_tz	hip_flexion_r	hip_adduction_r	hip_rotation_r	knee_angle_r	knee_angle_r_beta	ankle_angle_r	subtalar_angle_r	mtp_angle_r	hip_flexion_l	hip_adduction_l	hip_rotation_l	knee_angle_l	knee_angle_l_beta	ankle_angle_l	subtalar_angle_l	mtp_angle_l	lumbar_extension	lumbar_bending	lumbar_rotation	arm_flex_r	arm_add_r	arm_rot_r	elbow_flex_r	pro_sup_r	wrist_flex_r	wrist_dev_r	arm_flex_l	arm_add_l	arm_rot_l	elbow_flex_l	pro_sup_l	wrist_flex_l	wrist_dev_l
      8.65000000	    -25.81948486	     -2.47342025	   -176.54405808	      0.26130031	      0.91342814	     -0.59898717	    -23.90724497	    -10.41240027	    -20.35183600	      2.84150223	      0.04959357	      0.48282175	      0.00000000	      0.00000000	    -22.56947221	     -9.29172761	    -13.69286219	      1.80909884	      0.03157473	     -2.13855786	      0.00000000	      0.00000000	    -31.18573088	     -4.94902197	     -1.64019495	     10.71133683	    -13.14120976	     35.00014223	     22.23723393	     81.51047738	      0.00000000	      0.00000000	     16.08411726	    -10.31216131	     22.53269271	     13.89713122	     61.69508721	      0.00000000	      0.00000000
      8.65500000	    -25.83530032	     -2.40795670	   -176.66176662	      0.26116441	      0.91343837	     -0.59902009	    -23.89015265	    -10.39067004	    -20.11928419	      2.84184238	      0.04959951	      0.51473054	      0.00000000	      0.00000000	    -22.61229071	     -9.31471042	    -13.91906281	      1.84382452	      0.03218081	     -2.10695827	      0.00000000	      0.00000000	    -31.16778240	     -4.92367226	     -1.49371786	     10.56657469	    -12.73601063	     33.45405502	     21.89525272	     80.49309815	      0.00000000	      0.00000000	     16.12872664	     -9.97413518	     21.63897773	     13.68220753	     59.23495305	      0.00000000	      0.00000000
      8.66000000	    -25.87172602	     -2.45183637	   -176.81911558	      0.26116521	      0.91343398	     -0.59914400	    -23.83134668	    -10.53904339	    -20.05134648	      3.00327376	      0.05241702	      0.58604311	      0.00000000	      0.00000000	    -22.69873112	     -9.20792101	    -14.07020458	      1.82234319	      0.03180589	     -2.11076087	      0.00000000	      0.00000000	    -31.16988127	     -5.03107764	     -1.32594135	     10.70476910	    -13.10654439	     34.88043620	     22.03089924	     81.12941458	      0.00000000	      0.00000000	     16.09730175	    -10.13392358	     22.83184503	     13.85178656	     58.53399809	      0.00000000	      0.00000000
      8.66500000	    -25.92944479	     -2.50319390	   -176.72578864	      0.26112163	      0.91347423	     -0.59902525	    -23.94469154	    -10.54648399	    -20.18421022	      2.97434459	      0.05191211	      0.63205096	      0.00000000	      0.00000000	    -22.73789796	     -9.19658818	    -13.92073518	      1.82731778	      0.03189271	     -2.11632955	      0.00000000	      0.00000000	    -31.21562373	     -5.02290333	     -1.44283959	     10.72573768	    -13.19265168	     35.15430258	     22.09029983	     81.83200884	      0.00000000	      0.00000000	     16.02723144	    -10.16424415	     22.88184431	     13.96726040	     57.56197890	      0.00000000	      0.00000000
      8.67000000	    -25.94497154	     -2.57981764	   -176.72951666	      0.26098086	      0.91344123	     -0.59890205	    -23.99685658	    -10.62672134	    -20.12095779	      2.95276509	      0.05153547	      0.64034602	      0.00000000	      0.00000000	    -22.75240860	     -9.11293476	    -13.92848053	      1.85518212	      0.03237904	     -2.10901254	      0.00000000	      0.00000000	    -31.21290973	     -5.07386779	     -1.52598410	     10.63485757	    -12.92411476	     33.99807746	     21.93053749	     82.30632195	      0.00000000	      0.00000000	     16.06159616	     -9.89096996	     21.64445251	     13.71891185	     57.08526467	      0.00000000	      0.00000000
